<mxfile host="app.diagrams.net" agent="Mozilla/5.0 (Windows NT 10.0; Win64; x64) AppleWebKit/537.36 (KHTML, like Gecko) Chrome/127.0.0.0 Safari/537.36 OPR/113.0.0.0" version="24.7.16">
  <diagram name="Page-1" id="b5b7bab2-c9e2-2cf4-8b2a-24fd1a2a6d21">
    <mxGraphModel grid="1" page="1" gridSize="10" guides="1" tooltips="1" connect="1" arrows="1" fold="1" pageScale="1" pageWidth="827" pageHeight="1169" background="none" math="0" shadow="0">
      <root>
        <mxCell id="0" />
        <mxCell id="1" parent="0" />
        <mxCell id="QvnQzLv0lfRMjzgfRZO1-28" value="]" style="shape=folder;fontStyle=1;spacingTop=10;tabWidth=270;tabHeight=40;tabPosition=left;html=1;whiteSpace=wrap;" vertex="1" parent="1">
          <mxGeometry x="320" y="80" width="680" height="840" as="geometry" />
        </mxCell>
        <mxCell id="40P0dSujkCqKHvWfwPEe-28" value="&lt;div&gt;&lt;b style=&quot;font-family: &amp;quot;Times New Roman&amp;quot;; background-color: initial;&quot;&gt;&amp;nbsp; &amp;nbsp;&lt;/b&gt;&lt;/div&gt;&lt;div&gt;&lt;b style=&quot;font-family: &amp;quot;Times New Roman&amp;quot;; background-color: initial;&quot;&gt;&lt;br&gt;&lt;/b&gt;&lt;/div&gt;&lt;div&gt;&lt;b style=&quot;font-family: &amp;quot;Times New Roman&amp;quot;; background-color: initial;&quot;&gt;&lt;br&gt;&lt;/b&gt;&lt;/div&gt;&lt;div&gt;&lt;b style=&quot;font-family: &amp;quot;Times New Roman&amp;quot;; background-color: initial;&quot;&gt;&lt;br&gt;&lt;/b&gt;&lt;/div&gt;&lt;div&gt;&lt;b style=&quot;font-family: &amp;quot;Times New Roman&amp;quot;; background-color: initial;&quot;&gt;&lt;br&gt;&lt;/b&gt;&lt;/div&gt;&lt;div&gt;&lt;b style=&quot;font-family: &amp;quot;Times New Roman&amp;quot;; background-color: initial;&quot;&gt;&amp;nbsp; &amp;nbsp;Printing log module&lt;/b&gt;&lt;br&gt;&lt;/div&gt;" style="rounded=0;whiteSpace=wrap;html=1;align=left;" vertex="1" parent="1">
          <mxGeometry x="337.5" y="620" width="645" height="280" as="geometry" />
        </mxCell>
        <mxCell id="40P0dSujkCqKHvWfwPEe-20" value="&lt;div&gt;&lt;b style=&quot;font-family: &amp;quot;Times New Roman&amp;quot;; background-color: initial;&quot;&gt;&amp;nbsp;&lt;/b&gt;&lt;/div&gt;&lt;div&gt;&lt;b style=&quot;font-family: &amp;quot;Times New Roman&amp;quot;; background-color: initial;&quot;&gt;&amp;nbsp; &amp;nbsp;&lt;br&gt;&lt;br&gt;&amp;nbsp; &amp;nbsp;Printing service module&lt;/b&gt;&lt;br&gt;&lt;/div&gt;" style="rounded=0;whiteSpace=wrap;html=1;align=left;" vertex="1" parent="1">
          <mxGeometry x="337.5" y="340" width="645" height="260" as="geometry" />
        </mxCell>
        <mxCell id="QvnQzLv0lfRMjzgfRZO1-2" value="&lt;div&gt;&lt;b style=&quot;font-family: &amp;quot;Times New Roman&amp;quot;; background-color: initial;&quot;&gt;&lt;br&gt;&lt;/b&gt;&lt;/div&gt;&lt;div&gt;&lt;b style=&quot;font-family: &amp;quot;Times New Roman&amp;quot;; background-color: initial;&quot;&gt;&lt;br&gt;&lt;/b&gt;&lt;/div&gt;&lt;div&gt;&lt;b style=&quot;font-family: &amp;quot;Times New Roman&amp;quot;; background-color: initial;&quot;&gt;&lt;br&gt;&lt;/b&gt;&lt;/div&gt;&lt;div&gt;&lt;b style=&quot;font-family: &amp;quot;Times New Roman&amp;quot;; background-color: initial;&quot;&gt;&lt;br&gt;&lt;/b&gt;&lt;/div&gt;&lt;div&gt;&lt;b style=&quot;font-family: &amp;quot;Times New Roman&amp;quot;; background-color: initial;&quot;&gt;&lt;br&gt;&lt;/b&gt;&lt;/div&gt;&lt;div&gt;&lt;b style=&quot;font-family: &amp;quot;Times New Roman&amp;quot;; background-color: initial;&quot;&gt;&lt;br&gt;&lt;/b&gt;&lt;/div&gt;&lt;div&gt;&lt;b style=&quot;font-family: &amp;quot;Times New Roman&amp;quot;; background-color: initial;&quot;&gt;&lt;br&gt;&lt;/b&gt;&lt;/div&gt;&lt;div&gt;&lt;b style=&quot;font-family: &amp;quot;Times New Roman&amp;quot;; background-color: initial;&quot;&gt;&amp;nbsp; &amp;nbsp;&lt;/b&gt;&lt;/div&gt;&lt;div&gt;&lt;b style=&quot;font-family: &amp;quot;Times New Roman&amp;quot;; background-color: initial;&quot;&gt;&lt;br&gt;&lt;/b&gt;&lt;/div&gt;&lt;div&gt;&lt;b style=&quot;font-family: &amp;quot;Times New Roman&amp;quot;; background-color: initial;&quot;&gt;&amp;nbsp; &amp;nbsp;Access Control Module&lt;/b&gt;&lt;br&gt;&lt;/div&gt;" style="rounded=0;whiteSpace=wrap;html=1;align=left;" vertex="1" parent="1">
          <mxGeometry x="337.5" y="140" width="645" height="180" as="geometry" />
        </mxCell>
        <mxCell id="QvnQzLv0lfRMjzgfRZO1-3" value="&lt;font face=&quot;Times New Roman&quot;&gt;Students&lt;/font&gt;" style="shape=umlActor;verticalLabelPosition=bottom;verticalAlign=top;html=1;outlineConnect=0;" vertex="1" parent="1">
          <mxGeometry x="160" y="400" width="40" height="80" as="geometry" />
        </mxCell>
        <mxCell id="QvnQzLv0lfRMjzgfRZO1-4" value="&lt;font face=&quot;Times New Roman&quot;&gt;SPSO&lt;/font&gt;" style="shape=umlActor;verticalLabelPosition=bottom;verticalAlign=top;html=1;outlineConnect=0;" vertex="1" parent="1">
          <mxGeometry x="1120" y="360" width="40" height="80" as="geometry" />
        </mxCell>
        <mxCell id="QvnQzLv0lfRMjzgfRZO1-7" value="&lt;font face=&quot;Times New Roman&quot;&gt;Sign in / &lt;br&gt;Sign out&lt;/font&gt;" style="ellipse;whiteSpace=wrap;html=1;" vertex="1" parent="1">
          <mxGeometry x="600" y="230" width="110" height="60" as="geometry" />
        </mxCell>
        <mxCell id="QvnQzLv0lfRMjzgfRZO1-17" value="&lt;font face=&quot;Times New Roman&quot;&gt;BKPay&lt;/font&gt;" style="shape=umlActor;verticalLabelPosition=bottom;verticalAlign=top;html=1;outlineConnect=0;" vertex="1" parent="1">
          <mxGeometry x="1120" y="520" width="40" height="80" as="geometry" />
        </mxCell>
        <mxCell id="QvnQzLv0lfRMjzgfRZO1-18" value="&lt;font face=&quot;Times New Roman&quot;&gt;HCMUT_SSO&lt;/font&gt;" style="shape=umlActor;verticalLabelPosition=bottom;verticalAlign=top;html=1;outlineConnect=0;" vertex="1" parent="1">
          <mxGeometry x="1120" y="210" width="40" height="80" as="geometry" />
        </mxCell>
        <mxCell id="QvnQzLv0lfRMjzgfRZO1-29" value="&lt;font face=&quot;Times New Roman&quot;&gt;&lt;b&gt;Student Smart Printing Service (HCMUT_SSPS)&lt;/b&gt;&lt;/font&gt;" style="text;html=1;align=center;verticalAlign=middle;resizable=0;points=[];autosize=1;strokeColor=none;fillColor=none;" vertex="1" parent="1">
          <mxGeometry x="320" y="80" width="270" height="30" as="geometry" />
        </mxCell>
        <mxCell id="40P0dSujkCqKHvWfwPEe-9" value="" style="endArrow=classic;html=1;rounded=0;entryX=0.5;entryY=1;entryDx=0;entryDy=0;exitX=0.5;exitY=0;exitDx=0;exitDy=0;" edge="1" parent="1" source="40P0dSujkCqKHvWfwPEe-36" target="40P0dSujkCqKHvWfwPEe-33">
          <mxGeometry width="50" height="50" relative="1" as="geometry">
            <mxPoint x="579" y="832.5" as="sourcePoint" />
            <mxPoint x="660" y="745" as="targetPoint" />
            <Array as="points">
              <mxPoint x="660" y="800" />
            </Array>
          </mxGeometry>
        </mxCell>
        <mxCell id="40P0dSujkCqKHvWfwPEe-10" value="" style="endArrow=classic;html=1;rounded=0;entryX=0.5;entryY=1;entryDx=0;entryDy=0;exitX=0.5;exitY=0;exitDx=0;exitDy=0;" edge="1" parent="1" source="40P0dSujkCqKHvWfwPEe-35" target="40P0dSujkCqKHvWfwPEe-33">
          <mxGeometry width="50" height="50" relative="1" as="geometry">
            <mxPoint x="735" y="832.5" as="sourcePoint" />
            <mxPoint x="660" y="745" as="targetPoint" />
            <Array as="points">
              <mxPoint x="660" y="800" />
            </Array>
          </mxGeometry>
        </mxCell>
        <mxCell id="40P0dSujkCqKHvWfwPEe-18" value="" style="endArrow=none;html=1;rounded=0;exitX=1;exitY=0.5;exitDx=0;exitDy=0;" edge="1" parent="1" source="QvnQzLv0lfRMjzgfRZO1-7">
          <mxGeometry width="50" height="50" relative="1" as="geometry">
            <mxPoint x="750" y="420" as="sourcePoint" />
            <mxPoint x="1100" y="260" as="targetPoint" />
          </mxGeometry>
        </mxCell>
        <mxCell id="40P0dSujkCqKHvWfwPEe-19" value="" style="endArrow=none;html=1;rounded=0;exitX=1;exitY=0.5;exitDx=0;exitDy=0;" edge="1" parent="1" source="40P0dSujkCqKHvWfwPEe-22">
          <mxGeometry width="50" height="50" relative="1" as="geometry">
            <mxPoint x="960" y="260" as="sourcePoint" />
            <mxPoint x="1100" y="260" as="targetPoint" />
          </mxGeometry>
        </mxCell>
        <mxCell id="40P0dSujkCqKHvWfwPEe-22" value="&lt;span style=&quot;font-family: &amp;quot;Times New Roman&amp;quot;;&quot;&gt;Authenticate account&lt;/span&gt;" style="ellipse;whiteSpace=wrap;html=1;" vertex="1" parent="1">
          <mxGeometry x="845" y="160" width="110" height="60" as="geometry" />
        </mxCell>
        <mxCell id="40P0dSujkCqKHvWfwPEe-23" value="&lt;span style=&quot;font-family: &amp;quot;Times New Roman&amp;quot;;&quot;&gt;Manage printing service&lt;/span&gt;" style="ellipse;whiteSpace=wrap;html=1;" vertex="1" parent="1">
          <mxGeometry x="840" y="365" width="120" height="70" as="geometry" />
        </mxCell>
        <mxCell id="40P0dSujkCqKHvWfwPEe-24" value="&lt;span style=&quot;font-family: &amp;quot;Times New Roman&amp;quot;;&quot;&gt;Print document&lt;/span&gt;" style="ellipse;whiteSpace=wrap;html=1;" vertex="1" parent="1">
          <mxGeometry x="400" y="390" width="120" height="70" as="geometry" />
        </mxCell>
        <mxCell id="40P0dSujkCqKHvWfwPEe-25" value="&lt;span style=&quot;font-family: &amp;quot;Times New Roman&amp;quot;;&quot;&gt;Manage printers&lt;/span&gt;" style="ellipse;whiteSpace=wrap;html=1;" vertex="1" parent="1">
          <mxGeometry x="840" y="465" width="120" height="70" as="geometry" />
        </mxCell>
        <mxCell id="40P0dSujkCqKHvWfwPEe-26" value="&lt;span style=&quot;font-family: &amp;quot;Times New Roman&amp;quot;;&quot;&gt;Purchase additional pages&lt;/span&gt;" style="ellipse;whiteSpace=wrap;html=1;" vertex="1" parent="1">
          <mxGeometry x="416" y="530" width="116" height="55" as="geometry" />
        </mxCell>
        <mxCell id="40P0dSujkCqKHvWfwPEe-29" style="edgeStyle=orthogonalEdgeStyle;rounded=0;orthogonalLoop=1;jettySize=auto;html=1;exitX=0.5;exitY=1;exitDx=0;exitDy=0;exitPerimeter=0;" edge="1" parent="1" source="QvnQzLv0lfRMjzgfRZO1-28" target="QvnQzLv0lfRMjzgfRZO1-28">
          <mxGeometry relative="1" as="geometry" />
        </mxCell>
        <mxCell id="40P0dSujkCqKHvWfwPEe-33" value="&lt;span style=&quot;font-family: &amp;quot;Times New Roman&amp;quot;;&quot;&gt;View printing history&lt;/span&gt;" style="ellipse;whiteSpace=wrap;html=1;" vertex="1" parent="1">
          <mxGeometry x="600" y="680" width="120" height="80" as="geometry" />
        </mxCell>
        <mxCell id="40P0dSujkCqKHvWfwPEe-35" value="&lt;span style=&quot;font-family: &amp;quot;Times New Roman&amp;quot;;&quot;&gt;View system printing history&lt;/span&gt;" style="ellipse;whiteSpace=wrap;html=1;" vertex="1" parent="1">
          <mxGeometry x="680" y="820" width="120" height="70" as="geometry" />
        </mxCell>
        <mxCell id="40P0dSujkCqKHvWfwPEe-36" value="&lt;span style=&quot;font-family: &amp;quot;Times New Roman&amp;quot;;&quot;&gt;View students printing history&lt;/span&gt;" style="ellipse;whiteSpace=wrap;html=1;" vertex="1" parent="1">
          <mxGeometry x="520" y="820" width="120" height="70" as="geometry" />
        </mxCell>
        <mxCell id="40P0dSujkCqKHvWfwPEe-37" value="&lt;span style=&quot;font-family: &amp;quot;Times New Roman&amp;quot;;&quot;&gt;View users&lt;/span&gt;&lt;br style=&quot;font-family: &amp;quot;Times New Roman&amp;quot;;&quot;&gt;&lt;span style=&quot;font-family: &amp;quot;Times New Roman&amp;quot;;&quot;&gt;printing history&lt;/span&gt;" style="ellipse;whiteSpace=wrap;html=1;" vertex="1" parent="1">
          <mxGeometry x="416" y="650" width="116" height="60" as="geometry" />
        </mxCell>
        <mxCell id="40P0dSujkCqKHvWfwPEe-38" value="&lt;span style=&quot;font-family: &amp;quot;Times New Roman&amp;quot;;&quot;&gt;Generate and&lt;/span&gt;&lt;br style=&quot;font-family: &amp;quot;Times New Roman&amp;quot;;&quot;&gt;&lt;span style=&quot;font-family: &amp;quot;Times New Roman&amp;quot;;&quot;&gt;export report&amp;nbsp;&lt;/span&gt;" style="ellipse;whiteSpace=wrap;html=1;" vertex="1" parent="1">
          <mxGeometry x="840" y="630" width="120" height="70" as="geometry" />
        </mxCell>
        <mxCell id="40P0dSujkCqKHvWfwPEe-40" value="" style="endArrow=none;html=1;rounded=0;" edge="1" parent="1">
          <mxGeometry width="50" height="50" relative="1" as="geometry">
            <mxPoint x="220" y="440" as="sourcePoint" />
            <mxPoint x="280" y="260" as="targetPoint" />
          </mxGeometry>
        </mxCell>
        <mxCell id="40P0dSujkCqKHvWfwPEe-41" value="" style="endArrow=none;html=1;rounded=0;entryX=0;entryY=0.5;entryDx=0;entryDy=0;" edge="1" parent="1" target="QvnQzLv0lfRMjzgfRZO1-7">
          <mxGeometry width="50" height="50" relative="1" as="geometry">
            <mxPoint x="280" y="260" as="sourcePoint" />
            <mxPoint x="110" y="240" as="targetPoint" />
          </mxGeometry>
        </mxCell>
        <mxCell id="40P0dSujkCqKHvWfwPEe-44" value="" style="endArrow=none;html=1;rounded=0;entryX=0;entryY=0.5;entryDx=0;entryDy=0;" edge="1" parent="1" target="40P0dSujkCqKHvWfwPEe-24">
          <mxGeometry width="50" height="50" relative="1" as="geometry">
            <mxPoint x="220" y="440" as="sourcePoint" />
            <mxPoint x="130" y="320" as="targetPoint" />
          </mxGeometry>
        </mxCell>
        <mxCell id="40P0dSujkCqKHvWfwPEe-45" value="" style="endArrow=none;html=1;rounded=0;exitX=0;exitY=0.5;exitDx=0;exitDy=0;" edge="1" parent="1" source="40P0dSujkCqKHvWfwPEe-26">
          <mxGeometry width="50" height="50" relative="1" as="geometry">
            <mxPoint y="540" as="sourcePoint" />
            <mxPoint x="220" y="440" as="targetPoint" />
          </mxGeometry>
        </mxCell>
        <mxCell id="40P0dSujkCqKHvWfwPEe-46" value="" style="endArrow=none;html=1;rounded=0;" edge="1" parent="1">
          <mxGeometry width="50" height="50" relative="1" as="geometry">
            <mxPoint x="280" y="680" as="sourcePoint" />
            <mxPoint x="220" y="440" as="targetPoint" />
          </mxGeometry>
        </mxCell>
        <mxCell id="40P0dSujkCqKHvWfwPEe-47" value="" style="endArrow=none;html=1;rounded=0;entryX=0;entryY=0.5;entryDx=0;entryDy=0;" edge="1" parent="1" target="40P0dSujkCqKHvWfwPEe-37">
          <mxGeometry width="50" height="50" relative="1" as="geometry">
            <mxPoint x="280" y="680" as="sourcePoint" />
            <mxPoint x="90" y="650" as="targetPoint" />
          </mxGeometry>
        </mxCell>
        <mxCell id="40P0dSujkCqKHvWfwPEe-49" value="" style="endArrow=none;html=1;rounded=0;exitX=1;exitY=0.5;exitDx=0;exitDy=0;" edge="1" parent="1" source="QvnQzLv0lfRMjzgfRZO1-7">
          <mxGeometry width="50" height="50" relative="1" as="geometry">
            <mxPoint x="1020" y="200" as="sourcePoint" />
            <mxPoint x="1040" y="310" as="targetPoint" />
          </mxGeometry>
        </mxCell>
        <mxCell id="40P0dSujkCqKHvWfwPEe-51" value="" style="endArrow=none;html=1;rounded=0;" edge="1" parent="1">
          <mxGeometry width="50" height="50" relative="1" as="geometry">
            <mxPoint x="1100" y="400" as="sourcePoint" />
            <mxPoint x="1040" y="310" as="targetPoint" />
          </mxGeometry>
        </mxCell>
        <mxCell id="40P0dSujkCqKHvWfwPEe-52" value="" style="endArrow=none;html=1;rounded=0;exitX=1;exitY=0.5;exitDx=0;exitDy=0;" edge="1" parent="1" source="40P0dSujkCqKHvWfwPEe-23">
          <mxGeometry width="50" height="50" relative="1" as="geometry">
            <mxPoint x="1030" y="450" as="sourcePoint" />
            <mxPoint x="1100" y="400" as="targetPoint" />
          </mxGeometry>
        </mxCell>
        <mxCell id="40P0dSujkCqKHvWfwPEe-53" value="" style="endArrow=none;html=1;rounded=0;exitX=1;exitY=0.5;exitDx=0;exitDy=0;" edge="1" parent="1" source="40P0dSujkCqKHvWfwPEe-25">
          <mxGeometry width="50" height="50" relative="1" as="geometry">
            <mxPoint x="1030" y="450" as="sourcePoint" />
            <mxPoint x="1100" y="400" as="targetPoint" />
          </mxGeometry>
        </mxCell>
        <mxCell id="40P0dSujkCqKHvWfwPEe-54" value="" style="endArrow=none;html=1;rounded=0;exitX=1;exitY=0.5;exitDx=0;exitDy=0;" edge="1" parent="1" source="40P0dSujkCqKHvWfwPEe-26">
          <mxGeometry width="50" height="50" relative="1" as="geometry">
            <mxPoint x="1030" y="610" as="sourcePoint" />
            <mxPoint x="1100" y="560" as="targetPoint" />
          </mxGeometry>
        </mxCell>
        <mxCell id="40P0dSujkCqKHvWfwPEe-55" value="" style="endArrow=none;html=1;rounded=0;exitX=1;exitY=0.5;exitDx=0;exitDy=0;" edge="1" parent="1" source="40P0dSujkCqKHvWfwPEe-38">
          <mxGeometry width="50" height="50" relative="1" as="geometry">
            <mxPoint x="1050" y="710" as="sourcePoint" />
            <mxPoint x="1040" y="640" as="targetPoint" />
          </mxGeometry>
        </mxCell>
        <mxCell id="40P0dSujkCqKHvWfwPEe-56" value="" style="endArrow=none;html=1;rounded=0;" edge="1" parent="1">
          <mxGeometry width="50" height="50" relative="1" as="geometry">
            <mxPoint x="1040" y="640" as="sourcePoint" />
            <mxPoint x="1100" y="400" as="targetPoint" />
          </mxGeometry>
        </mxCell>
        <mxCell id="40P0dSujkCqKHvWfwPEe-57" value="" style="endArrow=none;html=1;rounded=0;exitX=1;exitY=0.5;exitDx=0;exitDy=0;" edge="1" parent="1" source="40P0dSujkCqKHvWfwPEe-33">
          <mxGeometry width="50" height="50" relative="1" as="geometry">
            <mxPoint x="1030" y="750" as="sourcePoint" />
            <mxPoint x="1010" y="720" as="targetPoint" />
          </mxGeometry>
        </mxCell>
        <mxCell id="40P0dSujkCqKHvWfwPEe-58" value="" style="endArrow=none;html=1;rounded=0;" edge="1" parent="1">
          <mxGeometry width="50" height="50" relative="1" as="geometry">
            <mxPoint x="1010" y="720" as="sourcePoint" />
            <mxPoint x="1040" y="640" as="targetPoint" />
          </mxGeometry>
        </mxCell>
        <mxCell id="40P0dSujkCqKHvWfwPEe-59" value="" style="html=1;labelBackgroundColor=#ffffff;startArrow=none;startFill=0;startSize=6;endArrow=classic;endFill=1;endSize=6;jettySize=auto;orthogonalLoop=1;strokeWidth=1;dashed=1;fontSize=14;rounded=0;entryX=0.5;entryY=1;entryDx=0;entryDy=0;exitX=1;exitY=0;exitDx=0;exitDy=0;" edge="1" parent="1" source="40P0dSujkCqKHvWfwPEe-24" target="QvnQzLv0lfRMjzgfRZO1-7">
          <mxGeometry width="60" height="60" relative="1" as="geometry">
            <mxPoint x="550" y="480" as="sourcePoint" />
            <mxPoint x="610" y="420" as="targetPoint" />
          </mxGeometry>
        </mxCell>
        <mxCell id="40P0dSujkCqKHvWfwPEe-60" value="&lt;font face=&quot;Times New Roman&quot;&gt;&amp;lt;&amp;lt;include&amp;gt;&amp;gt;&lt;/font&gt;" style="edgeLabel;html=1;align=center;verticalAlign=middle;resizable=0;points=[];" connectable="0" vertex="1" parent="40P0dSujkCqKHvWfwPEe-59">
          <mxGeometry x="-0.5158" y="-1" relative="1" as="geometry">
            <mxPoint as="offset" />
          </mxGeometry>
        </mxCell>
        <mxCell id="40P0dSujkCqKHvWfwPEe-61" value="" style="html=1;labelBackgroundColor=#ffffff;startArrow=none;startFill=0;startSize=6;endArrow=classic;endFill=1;endSize=6;jettySize=auto;orthogonalLoop=1;strokeWidth=1;dashed=1;fontSize=14;rounded=0;entryX=0.5;entryY=1;entryDx=0;entryDy=0;exitX=0;exitY=0.5;exitDx=0;exitDy=0;" edge="1" parent="1" source="40P0dSujkCqKHvWfwPEe-25" target="QvnQzLv0lfRMjzgfRZO1-7">
          <mxGeometry width="60" height="60" relative="1" as="geometry">
            <mxPoint x="640" y="535" as="sourcePoint" />
            <mxPoint x="793" y="425" as="targetPoint" />
          </mxGeometry>
        </mxCell>
        <mxCell id="40P0dSujkCqKHvWfwPEe-62" value="&lt;font face=&quot;Times New Roman&quot;&gt;&amp;lt;&amp;lt;include&amp;gt;&amp;gt;&lt;/font&gt;" style="edgeLabel;html=1;align=center;verticalAlign=middle;resizable=0;points=[];" connectable="0" vertex="1" parent="40P0dSujkCqKHvWfwPEe-61">
          <mxGeometry x="-0.5158" y="-1" relative="1" as="geometry">
            <mxPoint as="offset" />
          </mxGeometry>
        </mxCell>
        <mxCell id="40P0dSujkCqKHvWfwPEe-63" value="" style="html=1;labelBackgroundColor=#ffffff;startArrow=none;startFill=0;startSize=6;endArrow=classic;endFill=1;endSize=6;jettySize=auto;orthogonalLoop=1;strokeWidth=1;dashed=1;fontSize=14;rounded=0;entryX=0.5;entryY=1;entryDx=0;entryDy=0;exitX=1;exitY=0;exitDx=0;exitDy=0;" edge="1" parent="1" source="40P0dSujkCqKHvWfwPEe-26" target="QvnQzLv0lfRMjzgfRZO1-7">
          <mxGeometry width="60" height="60" relative="1" as="geometry">
            <mxPoint x="540" y="495" as="sourcePoint" />
            <mxPoint x="693" y="385" as="targetPoint" />
          </mxGeometry>
        </mxCell>
        <mxCell id="40P0dSujkCqKHvWfwPEe-64" value="&lt;font face=&quot;Times New Roman&quot;&gt;&amp;lt;&amp;lt;include&amp;gt;&amp;gt;&lt;/font&gt;" style="edgeLabel;html=1;align=center;verticalAlign=middle;resizable=0;points=[];" connectable="0" vertex="1" parent="40P0dSujkCqKHvWfwPEe-63">
          <mxGeometry x="-0.5158" y="-1" relative="1" as="geometry">
            <mxPoint y="-13" as="offset" />
          </mxGeometry>
        </mxCell>
        <mxCell id="40P0dSujkCqKHvWfwPEe-65" value="" style="html=1;labelBackgroundColor=#ffffff;startArrow=none;startFill=0;startSize=6;endArrow=classic;endFill=1;endSize=6;jettySize=auto;orthogonalLoop=1;strokeWidth=1;dashed=1;fontSize=14;rounded=0;entryX=0.5;entryY=1;entryDx=0;entryDy=0;exitX=0;exitY=0.5;exitDx=0;exitDy=0;" edge="1" parent="1" source="40P0dSujkCqKHvWfwPEe-23" target="QvnQzLv0lfRMjzgfRZO1-7">
          <mxGeometry width="60" height="60" relative="1" as="geometry">
            <mxPoint x="522" y="420" as="sourcePoint" />
            <mxPoint x="675" y="310" as="targetPoint" />
          </mxGeometry>
        </mxCell>
        <mxCell id="40P0dSujkCqKHvWfwPEe-66" value="&lt;font face=&quot;Times New Roman&quot;&gt;&amp;lt;&amp;lt;include&amp;gt;&amp;gt;&lt;/font&gt;" style="edgeLabel;html=1;align=center;verticalAlign=middle;resizable=0;points=[];" connectable="0" vertex="1" parent="40P0dSujkCqKHvWfwPEe-65">
          <mxGeometry x="-0.5158" y="-1" relative="1" as="geometry">
            <mxPoint x="-5" y="-2" as="offset" />
          </mxGeometry>
        </mxCell>
        <mxCell id="40P0dSujkCqKHvWfwPEe-67" value="" style="html=1;labelBackgroundColor=#ffffff;startArrow=none;startFill=0;startSize=6;endArrow=classic;endFill=1;endSize=6;jettySize=auto;orthogonalLoop=1;strokeWidth=1;dashed=1;fontSize=14;rounded=0;entryX=0.5;entryY=1;entryDx=0;entryDy=0;exitX=1;exitY=0;exitDx=0;exitDy=0;" edge="1" parent="1" source="40P0dSujkCqKHvWfwPEe-37" target="QvnQzLv0lfRMjzgfRZO1-7">
          <mxGeometry width="60" height="60" relative="1" as="geometry">
            <mxPoint x="532" y="430" as="sourcePoint" />
            <mxPoint x="685" y="320" as="targetPoint" />
          </mxGeometry>
        </mxCell>
        <mxCell id="40P0dSujkCqKHvWfwPEe-68" value="&lt;font face=&quot;Times New Roman&quot;&gt;&amp;lt;&amp;lt;include&amp;gt;&amp;gt;&lt;/font&gt;" style="edgeLabel;html=1;align=center;verticalAlign=middle;resizable=0;points=[];" connectable="0" vertex="1" parent="40P0dSujkCqKHvWfwPEe-67">
          <mxGeometry x="-0.5158" y="-1" relative="1" as="geometry">
            <mxPoint x="30" y="-49" as="offset" />
          </mxGeometry>
        </mxCell>
        <mxCell id="40P0dSujkCqKHvWfwPEe-69" value="" style="html=1;labelBackgroundColor=#ffffff;startArrow=none;startFill=0;startSize=6;endArrow=classic;endFill=1;endSize=6;jettySize=auto;orthogonalLoop=1;strokeWidth=1;dashed=1;fontSize=14;rounded=0;entryX=0.5;entryY=1;entryDx=0;entryDy=0;exitX=0.5;exitY=0;exitDx=0;exitDy=0;" edge="1" parent="1" source="40P0dSujkCqKHvWfwPEe-33" target="QvnQzLv0lfRMjzgfRZO1-7">
          <mxGeometry width="60" height="60" relative="1" as="geometry">
            <mxPoint x="542" y="440" as="sourcePoint" />
            <mxPoint x="695" y="330" as="targetPoint" />
          </mxGeometry>
        </mxCell>
        <mxCell id="40P0dSujkCqKHvWfwPEe-70" value="&lt;font face=&quot;Times New Roman&quot;&gt;&amp;lt;&amp;lt;include&amp;gt;&amp;gt;&lt;/font&gt;" style="edgeLabel;html=1;align=center;verticalAlign=middle;resizable=0;points=[];" connectable="0" vertex="1" parent="40P0dSujkCqKHvWfwPEe-69">
          <mxGeometry x="-0.5158" y="-1" relative="1" as="geometry">
            <mxPoint x="-5" y="-86" as="offset" />
          </mxGeometry>
        </mxCell>
        <mxCell id="40P0dSujkCqKHvWfwPEe-71" value="" style="html=1;labelBackgroundColor=#ffffff;startArrow=none;startFill=0;startSize=6;endArrow=classic;endFill=1;endSize=6;jettySize=auto;orthogonalLoop=1;strokeWidth=1;dashed=1;fontSize=14;rounded=0;entryX=0.5;entryY=1;entryDx=0;entryDy=0;exitX=0;exitY=0;exitDx=0;exitDy=0;" edge="1" parent="1" source="40P0dSujkCqKHvWfwPEe-38" target="QvnQzLv0lfRMjzgfRZO1-7">
          <mxGeometry width="60" height="60" relative="1" as="geometry">
            <mxPoint x="552" y="450" as="sourcePoint" />
            <mxPoint x="705" y="340" as="targetPoint" />
          </mxGeometry>
        </mxCell>
        <mxCell id="40P0dSujkCqKHvWfwPEe-72" value="&lt;font face=&quot;Times New Roman&quot;&gt;&amp;lt;&amp;lt;include&amp;gt;&amp;gt;&lt;/font&gt;" style="edgeLabel;html=1;align=center;verticalAlign=middle;resizable=0;points=[];" connectable="0" vertex="1" parent="40P0dSujkCqKHvWfwPEe-71">
          <mxGeometry x="-0.5158" y="-1" relative="1" as="geometry">
            <mxPoint x="-29" y="-28" as="offset" />
          </mxGeometry>
        </mxCell>
        <mxCell id="40P0dSujkCqKHvWfwPEe-74" value="" style="html=1;labelBackgroundColor=#ffffff;startArrow=none;startFill=0;startSize=6;endArrow=classic;endFill=1;endSize=6;jettySize=auto;orthogonalLoop=1;strokeWidth=1;dashed=1;fontSize=14;rounded=0;entryX=1;entryY=0;entryDx=0;entryDy=0;exitX=0;exitY=0.5;exitDx=0;exitDy=0;" edge="1" parent="1" source="40P0dSujkCqKHvWfwPEe-22" target="QvnQzLv0lfRMjzgfRZO1-7">
          <mxGeometry width="60" height="60" relative="1" as="geometry">
            <mxPoint x="450" y="260" as="sourcePoint" />
            <mxPoint x="603" y="150" as="targetPoint" />
          </mxGeometry>
        </mxCell>
        <mxCell id="40P0dSujkCqKHvWfwPEe-75" value="&lt;font face=&quot;Times New Roman&quot;&gt;&amp;lt;&amp;lt;include&amp;gt;&amp;gt;&lt;/font&gt;" style="edgeLabel;html=1;align=center;verticalAlign=middle;resizable=0;points=[];" connectable="0" vertex="1" parent="40P0dSujkCqKHvWfwPEe-74">
          <mxGeometry x="-0.5158" y="-1" relative="1" as="geometry">
            <mxPoint x="-28" y="9" as="offset" />
          </mxGeometry>
        </mxCell>
      </root>
    </mxGraphModel>
  </diagram>
</mxfile>
